<svg width="280" height="60" viewBox="0 0 280 60" fill="none" xmlns="http://www.w3.org/2000/svg">
<path d="M44 4H16C9.37258 4 4 9.37258 4 16V44C4 50.6274 9.37258 56 16 56H44C50.6274 56 56 50.6274 56 44V16C56 9.37258 50.6274 4 44 4Z" fill="url(#paint0_linear_35_112)"/>
<path d="M16 10H13C12.4477 10 12 10.4477 12 11V43C12 43.5523 12.4477 44 13 44H16C16.5523 44 17 43.5523 17 43V11C17 10.4477 16.5523 10 16 10Z" fill="white"/>
<path d="M37 10H13C12.4477 10 12 10.4477 12 11V14C12 14.5523 12.4477 15 13 15H37C37.5523 15 38 14.5523 38 14V11C38 10.4477 37.5523 10 37 10Z" fill="white"/>
<path d="M31 22H13C12.4477 22 12 22.4477 12 23V25.2C12 25.7523 12.4477 26.2 13 26.2H31C31.5523 26.2 32 25.7523 32 25.2V23C32 22.4477 31.5523 22 31 22Z" fill="white"/>
<path opacity="0.85" d="M41.4385 33.1758L40.0243 31.7615C39.79 31.5272 39.4101 31.5272 39.1757 31.7615L37.7615 33.1758C37.5272 33.4101 37.5272 33.79 37.7615 34.0243L39.1757 35.4385C39.4101 35.6728 39.79 35.6728 40.0243 35.4385L41.4385 34.0243C41.6728 33.79 41.6728 33.4101 41.4385 33.1758Z" fill="white"/>
<path d="M70.2756 37V10.8182H87.6108V15.3821H75.8111V21.6207H86.4602V26.1847H75.8111V37H70.2756ZM115.394 23.9091C115.394 26.7642 114.853 29.1932 113.77 31.196C112.696 33.1989 111.23 34.7287 109.373 35.7855C107.523 36.8338 105.444 37.358 103.134 37.358C100.807 37.358 98.7191 36.8295 96.8697 35.7727C95.0202 34.7159 93.5586 33.1861 92.4847 31.1832C91.4109 29.1804 90.8739 26.7557 90.8739 23.9091C90.8739 21.054 91.4109 18.625 92.4847 16.6222C93.5586 14.6193 95.0202 13.0937 96.8697 12.0455C98.7191 10.9886 100.807 10.4602 103.134 10.4602C105.444 10.4602 107.523 10.9886 109.373 12.0455C111.23 13.0937 112.696 14.6193 113.77 16.6222C114.853 18.625 115.394 21.054 115.394 23.9091ZM109.782 23.9091C109.782 22.0597 109.505 20.5 108.951 19.2301C108.405 17.9602 107.634 16.9972 106.637 16.3409C105.64 15.6847 104.472 15.3565 103.134 15.3565C101.796 15.3565 100.628 15.6847 99.631 16.3409C98.6339 16.9972 97.8583 17.9602 97.3043 19.2301C96.7589 20.5 96.4862 22.0597 96.4862 23.9091C96.4862 25.7585 96.7589 27.3182 97.3043 28.5881C97.8583 29.858 98.6339 30.821 99.631 31.4773C100.628 32.1335 101.796 32.4616 103.134 32.4616C104.472 32.4616 105.64 32.1335 106.637 31.4773C107.634 30.821 108.405 29.858 108.951 28.5881C109.505 27.3182 109.782 25.7585 109.782 23.9091ZM119.494 37V10.8182H129.824C131.801 10.8182 133.489 11.1719 134.886 11.8793C136.293 12.5781 137.362 13.571 138.095 14.858C138.837 16.1364 139.207 17.6406 139.207 19.3707C139.207 21.1094 138.832 22.6051 138.082 23.858C137.332 25.1023 136.246 26.0568 134.822 26.7216C133.408 27.3864 131.695 27.7188 129.683 27.7188H122.767V23.2699H128.788C129.845 23.2699 130.723 23.125 131.422 22.8352C132.121 22.5455 132.641 22.1108 132.982 21.5312C133.331 20.9517 133.506 20.2315 133.506 19.3707C133.506 18.5014 133.331 17.7685 132.982 17.1719C132.641 16.5753 132.116 16.1236 131.409 15.8168C130.71 15.5014 129.828 15.3438 128.763 15.3438H125.03V37H119.494ZM133.634 25.0852L140.141 37H134.03L127.663 25.0852H133.634ZM160.48 19.2812C160.301 18.6591 160.05 18.1094 159.726 17.6321C159.402 17.1463 159.006 16.7372 158.537 16.4048C158.077 16.0639 157.548 15.804 156.952 15.625C156.364 15.446 155.712 15.3565 154.996 15.3565C153.658 15.3565 152.482 15.6889 151.467 16.3537C150.462 17.0185 149.678 17.9858 149.115 19.2557C148.553 20.517 148.271 22.0597 148.271 23.8835C148.271 25.7074 148.548 27.2585 149.102 28.5369C149.656 29.8153 150.44 30.7912 151.455 31.4645C152.469 32.1293 153.666 32.4616 155.047 32.4616C156.3 32.4616 157.369 32.2401 158.256 31.7969C159.151 31.3452 159.832 30.7102 160.301 29.892C160.778 29.0739 161.017 28.1065 161.017 26.9901L162.142 27.1562H155.392V22.9886H166.348V26.2869C166.348 28.5881 165.862 30.5653 164.891 32.2188C163.919 33.8636 162.581 35.1335 160.876 36.0284C159.172 36.9148 157.22 37.358 155.021 37.358C152.567 37.358 150.411 36.8168 148.553 35.7344C146.695 34.6435 145.246 33.0966 144.206 31.0938C143.175 29.0824 142.659 26.696 142.659 23.9347C142.659 21.8125 142.966 19.9205 143.58 18.2585C144.202 16.5881 145.071 15.1733 146.188 14.0142C147.304 12.8551 148.604 11.973 150.087 11.3679C151.57 10.7628 153.176 10.4602 154.906 10.4602C156.389 10.4602 157.77 10.6776 159.048 11.1122C160.327 11.5384 161.46 12.1435 162.449 12.9276C163.446 13.7116 164.26 14.6449 164.891 15.7273C165.521 16.8011 165.926 17.9858 166.105 19.2812H160.48ZM170.506 37V10.8182H188.148V15.3821H176.042V21.6207H187.24V26.1847H176.042V32.4361H188.199V37H170.506Z" fill="#1A1A2E"/>
<defs>
<linearGradient id="paint0_linear_35_112" x1="4" y1="4" x2="56" y2="56" gradientUnits="userSpaceOnUse">
<stop stop-color="#0D99FF"/>
<stop offset="0.5" stop-color="#6C5CE7"/>
<stop offset="1" stop-color="#B388FF"/>
</linearGradient>
</defs>
</svg>
