<svg width="400" height="420" viewBox="0 0 400 420" fill="none" xmlns="http://www.w3.org/2000/svg">
<path d="M256 20H144C119.699 20 100 39.6995 100 64V176C100 200.301 119.699 220 144 220H256C280.301 220 300 200.301 300 176V64C300 39.6995 280.301 20 256 20Z" fill="url(#paint0_linear_35_78)"/>
<mask id="mask0_35_78" style="mask-type:luminance" maskUnits="userSpaceOnUse" x="100" y="20" width="200" height="200">
<path d="M256 20H144C119.699 20 100 39.6995 100 64V176C100 200.301 119.699 220 144 220H256C280.301 220 300 200.301 300 176V64C300 39.6995 280.301 20 256 20Z" fill="white"/>
</mask>
<g mask="url(#mask0_35_78)">
<path d="M155 52H139C136.791 52 135 53.7909 135 56V184C135 186.209 136.791 188 139 188H155C157.209 188 159 186.209 159 184V56C159 53.7909 157.209 52 155 52Z" fill="white"/>
<path d="M236 52H139C136.791 52 135 53.7909 135 56V72C135 74.2091 136.791 76 139 76H236C238.209 76 240 74.2091 240 72V56C240 53.7909 238.209 52 236 52Z" fill="white"/>
<path d="M213 98H139C136.791 98 135 99.7909 135 102V114C135 116.209 136.791 118 139 118H213C215.209 118 217 116.209 217 114V102C217 99.7909 215.209 98 213 98Z" fill="white"/>
</g>
<mask id="mask1_35_78" style="mask-type:luminance" maskUnits="userSpaceOnUse" x="100" y="20" width="200" height="200">
<path d="M256 20H144C119.699 20 100 39.6995 100 64V176C100 200.301 119.699 220 144 220H256C280.301 220 300 200.301 300 176V64C300 39.6995 280.301 20 256 20Z" fill="white"/>
</mask>
<g mask="url(#mask1_35_78)">
<path opacity="0.85" d="M257.132 149.232L250.768 142.868C249.791 141.892 248.209 141.892 247.232 142.868L240.868 149.232C239.892 150.209 239.892 151.791 240.868 152.768L247.232 159.132C248.209 160.108 249.791 160.108 250.768 159.132L257.132 152.768C258.108 151.791 258.108 150.209 257.132 149.232Z" fill="white"/>
</g>
<path d="M82.2777 300V247.636H116.948V256.764H93.3487V269.241H114.647V278.369H93.3487V300H82.2777ZM172.514 273.818C172.514 279.528 171.432 284.386 169.267 288.392C167.119 292.398 164.188 295.457 160.472 297.571C156.773 299.668 152.614 300.716 147.994 300.716C143.341 300.716 139.165 299.659 135.466 297.545C131.767 295.432 128.844 292.372 126.696 288.366C124.548 284.361 123.474 279.511 123.474 273.818C123.474 268.108 124.548 263.25 126.696 259.244C128.844 255.239 131.767 252.187 135.466 250.091C139.165 247.977 143.341 246.92 147.994 246.92C152.614 246.92 156.773 247.977 160.472 250.091C164.188 252.187 167.119 255.239 169.267 259.244C171.432 263.25 172.514 268.108 172.514 273.818ZM161.29 273.818C161.29 270.119 160.736 267 159.628 264.46C158.537 261.92 156.994 259.994 155 258.682C153.006 257.369 150.67 256.713 147.994 256.713C145.318 256.713 142.983 257.369 140.989 258.682C138.994 259.994 137.443 261.92 136.335 264.46C135.244 267 134.699 270.119 134.699 273.818C134.699 277.517 135.244 280.636 136.335 283.176C137.443 285.716 138.994 287.642 140.989 288.955C142.983 290.267 145.318 290.923 147.994 290.923C150.67 290.923 153.006 290.267 155 288.955C156.994 287.642 158.537 285.716 159.628 283.176C160.736 280.636 161.29 277.517 161.29 273.818ZM180.715 300V247.636H201.374C205.329 247.636 208.704 248.344 211.499 249.759C214.312 251.156 216.451 253.142 217.917 255.716C219.4 258.273 220.141 261.281 220.141 264.741C220.141 268.219 219.391 271.21 217.891 273.716C216.391 276.205 214.218 278.114 211.371 279.443C208.542 280.773 205.116 281.438 201.093 281.438H187.261V272.54H199.303C201.417 272.54 203.173 272.25 204.57 271.67C205.968 271.091 207.008 270.222 207.69 269.062C208.388 267.903 208.738 266.463 208.738 264.741C208.738 263.003 208.388 261.537 207.69 260.344C207.008 259.151 205.96 258.247 204.545 257.634C203.147 257.003 201.383 256.688 199.252 256.688H191.786V300H180.715ZM208.994 276.17L222.008 300H209.786L197.053 276.17H208.994ZM262.687 264.562C262.329 263.318 261.826 262.219 261.178 261.264C260.531 260.293 259.738 259.474 258.8 258.8C257.88 258.128 256.823 257.608 255.63 257.25C254.454 256.892 253.15 256.713 251.718 256.713C249.042 256.713 246.69 257.378 244.661 258.707C242.65 260.037 241.082 261.972 239.957 264.511C238.832 267.034 238.269 270.119 238.269 273.767C238.269 277.415 238.823 280.517 239.931 283.074C241.039 285.631 242.607 287.582 244.636 288.929C246.664 290.259 249.059 290.923 251.82 290.923C254.326 290.923 256.465 290.48 258.238 289.594C260.028 288.69 261.391 287.42 262.329 285.784C263.283 284.148 263.761 282.213 263.761 279.98L266.011 280.312H252.511V271.977H274.423V278.574C274.423 283.176 273.451 287.131 271.508 290.438C269.565 293.727 266.888 296.267 263.479 298.057C260.07 299.83 256.167 300.716 251.769 300.716C246.86 300.716 242.548 299.634 238.832 297.469C235.116 295.287 232.218 292.193 230.138 288.188C228.076 284.165 227.045 279.392 227.045 273.869C227.045 269.625 227.658 265.841 228.886 262.517C230.13 259.176 231.869 256.347 234.102 254.028C236.335 251.71 238.934 249.946 241.9 248.736C244.866 247.526 248.079 246.92 251.539 246.92C254.505 246.92 257.266 247.355 259.823 248.224C262.38 249.076 264.647 250.287 266.624 251.855C268.619 253.423 270.246 255.29 271.508 257.455C272.769 259.602 273.579 261.972 273.937 264.562H262.687ZM282.739 300V247.636H318.023V256.764H293.81V269.241H316.207V278.369H293.81V290.872H318.125V300H282.739Z" fill="#1A1A2E"/>
<path d="M105 325H295" stroke="url(#paint1_linear_35_78)" stroke-width="2.5" stroke-linecap="round"/>
<path d="M134.818 357H133.433L137.439 346.091H138.802L142.808 357H141.423L138.163 347.817H138.078L134.818 357ZM135.329 352.739H140.912V353.911H135.329V352.739ZM145.828 346.091V357H144.507V346.091H145.828ZM156.062 357H152.696V346.091H156.211C157.269 346.091 158.175 346.309 158.928 346.746C159.681 347.179 160.258 347.803 160.659 348.616C161.06 349.425 161.261 350.395 161.261 351.524C161.261 352.661 161.058 353.639 160.654 354.459C160.249 355.276 159.659 355.904 158.885 356.345C158.111 356.782 157.17 357 156.062 357ZM154.017 355.828H155.977C156.879 355.828 157.626 355.654 158.219 355.306C158.812 354.958 159.254 354.463 159.546 353.82C159.837 353.177 159.982 352.412 159.982 351.524C159.982 350.643 159.839 349.885 159.551 349.25C159.263 348.61 158.834 348.12 158.262 347.779C157.69 347.435 156.978 347.263 156.126 347.263H154.017V355.828ZM163.477 357V346.091H170.061V347.263H164.798V350.949H169.72V352.121H164.798V355.828H170.146V357H163.477ZM178.408 348.818C178.344 348.278 178.084 347.859 177.63 347.561C177.175 347.263 176.618 347.114 175.957 347.114C175.474 347.114 175.052 347.192 174.689 347.348C174.331 347.504 174.05 347.719 173.848 347.993C173.649 348.266 173.55 348.577 173.55 348.925C173.55 349.216 173.619 349.466 173.757 349.676C173.899 349.882 174.08 350.054 174.301 350.192C174.521 350.327 174.752 350.439 174.993 350.528C175.235 350.613 175.457 350.683 175.659 350.736L176.767 351.034C177.051 351.109 177.367 351.212 177.715 351.343C178.067 351.474 178.402 351.654 178.722 351.881C179.045 352.105 179.311 352.392 179.521 352.744C179.73 353.096 179.835 353.527 179.835 354.038C179.835 354.628 179.681 355.161 179.372 355.636C179.066 356.112 178.619 356.49 178.029 356.771C177.443 357.051 176.731 357.192 175.893 357.192C175.112 357.192 174.436 357.066 173.864 356.814C173.296 356.561 172.848 356.21 172.522 355.759C172.198 355.308 172.015 354.784 171.973 354.188H173.337C173.372 354.599 173.511 354.94 173.752 355.21C173.997 355.477 174.306 355.675 174.679 355.807C175.055 355.935 175.46 355.999 175.893 355.999C176.398 355.999 176.85 355.917 177.252 355.754C177.653 355.587 177.971 355.356 178.205 355.061C178.439 354.763 178.557 354.415 178.557 354.017C178.557 353.655 178.455 353.36 178.253 353.133C178.051 352.906 177.784 352.721 177.454 352.579C177.124 352.437 176.767 352.312 176.383 352.206L175.041 351.822C174.189 351.577 173.514 351.228 173.017 350.773C172.52 350.319 172.271 349.724 172.271 348.989C172.271 348.378 172.436 347.845 172.767 347.391C173.1 346.933 173.548 346.577 174.109 346.325C174.674 346.07 175.304 345.942 176 345.942C176.703 345.942 177.328 346.068 177.875 346.32C178.422 346.569 178.855 346.909 179.175 347.343C179.498 347.776 179.668 348.268 179.686 348.818H178.408ZM183.328 346.091V357H182.007V346.091H183.328ZM193.434 349.5C193.317 349.141 193.163 348.82 192.971 348.536C192.783 348.248 192.557 348.003 192.294 347.801C192.035 347.598 191.74 347.444 191.41 347.337C191.08 347.231 190.718 347.178 190.323 347.178C189.677 347.178 189.089 347.344 188.56 347.678C188.031 348.012 187.61 348.504 187.298 349.154C186.985 349.804 186.829 350.601 186.829 351.545C186.829 352.49 186.987 353.287 187.303 353.937C187.619 354.587 188.047 355.079 188.587 355.413C189.127 355.746 189.734 355.913 190.409 355.913C191.034 355.913 191.584 355.78 192.06 355.514C192.539 355.244 192.912 354.864 193.178 354.374C193.448 353.88 193.583 353.3 193.583 352.632L193.988 352.717H190.707V351.545H194.862V352.717C194.862 353.616 194.67 354.397 194.286 355.061C193.906 355.725 193.381 356.24 192.71 356.606C192.042 356.968 191.275 357.149 190.409 357.149C189.443 357.149 188.594 356.922 187.862 356.467C187.134 356.013 186.566 355.366 186.158 354.528C185.753 353.69 185.551 352.696 185.551 351.545C185.551 350.683 185.666 349.907 185.897 349.218C186.131 348.525 186.462 347.936 186.888 347.449C187.314 346.963 187.818 346.59 188.4 346.331C188.983 346.071 189.624 345.942 190.323 345.942C190.899 345.942 191.435 346.029 191.932 346.203C192.433 346.373 192.878 346.616 193.269 346.933C193.663 347.245 193.992 347.62 194.254 348.056C194.517 348.49 194.698 348.971 194.798 349.5H193.434ZM205.775 346.091V357H204.496L198.552 348.435H198.445V357H197.124V346.091H198.403L204.369 354.678H204.475V346.091H205.775ZM212.637 357V346.091H219.221V347.263H213.958V350.949H218.88V352.121H213.958V355.828H219.306V357H212.637ZM230.252 346.091V357H228.974L223.029 348.435H222.923V357H221.602V346.091H222.88L228.846 354.678H228.953V346.091H230.252ZM240.353 349.5C240.236 349.141 240.081 348.82 239.89 348.536C239.701 348.248 239.476 348.003 239.213 347.801C238.954 347.598 238.659 347.444 238.329 347.337C237.999 347.231 237.636 347.178 237.242 347.178C236.596 347.178 236.008 347.344 235.479 347.678C234.95 348.012 234.529 348.504 234.217 349.154C233.904 349.804 233.748 350.601 233.748 351.545C233.748 352.49 233.906 353.287 234.222 353.937C234.538 354.587 234.966 355.079 235.506 355.413C236.046 355.746 236.653 355.913 237.328 355.913C237.953 355.913 238.503 355.78 238.979 355.514C239.458 355.244 239.831 354.864 240.097 354.374C240.367 353.88 240.502 353.3 240.502 352.632L240.907 352.717H237.626V351.545H241.781V352.717C241.781 353.616 241.589 354.397 241.205 355.061C240.825 355.725 240.3 356.24 239.629 356.606C238.961 356.968 238.194 357.149 237.328 357.149C236.362 357.149 235.513 356.922 234.781 356.467C234.053 356.013 233.485 355.366 233.077 354.528C232.672 353.69 232.47 352.696 232.47 351.545C232.47 350.683 232.585 349.907 232.816 349.218C233.05 348.525 233.38 347.936 233.807 347.449C234.233 346.963 234.737 346.59 235.319 346.331C235.902 346.071 236.543 345.942 237.242 345.942C237.818 345.942 238.354 346.029 238.851 346.203C239.352 346.373 239.797 346.616 240.188 346.933C240.582 347.245 240.911 347.62 241.173 348.056C241.436 348.49 241.617 348.971 241.717 349.5H240.353ZM245.364 346.091V357H244.043V346.091H245.364ZM256.663 346.091V357H255.385L249.44 348.435H249.334V357H248.013V346.091H249.291L255.257 354.678H255.364V346.091H256.663ZM259.307 357V346.091H265.891V347.263H260.628V350.949H265.55V352.121H260.628V355.828H265.976V357H259.307Z" fill="#8B8B9E"/>
<defs>
<linearGradient id="paint0_linear_35_78" x1="100" y1="20" x2="300" y2="220" gradientUnits="userSpaceOnUse">
<stop stop-color="#0D99FF"/>
<stop offset="0.5" stop-color="#6C5CE7"/>
<stop offset="1" stop-color="#B388FF"/>
</linearGradient>
<linearGradient id="paint1_linear_35_78" x1="105" y1="325" x2="295" y2="325" gradientUnits="userSpaceOnUse">
<stop stop-color="#0D99FF"/>
<stop offset="1" stop-color="#B388FF"/>
</linearGradient>
</defs>
</svg>
